<?xml version="1.0" encoding="utf-8"?>
<!-- Generator: Adobe Illustrator 18.1.1, SVG Export Plug-In . SVG Version: 6.00 Build 0)  -->
<!DOCTYPE svg PUBLIC "-//W3C//DTD SVG 1.1//EN" "http://www.w3.org/Graphics/SVG/1.1/DTD/svg11.dtd">
<svg version="1.1" id="Layer_1" xmlns="http://www.w3.org/2000/svg" xmlns:xlink="http://www.w3.org/1999/xlink" x="0px" y="0px"
	 viewBox="0 0 960 560" enable-background="new 0 0 960 560" xml:space="preserve">
<g>
	<path fill="#FFFFFF" d="M236.1,125.8c0,0,1.6,37.2-34.2,37.7s-42.9-0.2-42.9-0.2v211.9c0,0-47.8,8.5-50.7-28.1
		c-2.9-36.6-1-182.9-1-182.9s-74.1-1.8-80.1,4.5s0.2-38.8,33.7-39.2S229.2,131.6,236.1,125.8z"/>
	<path fill="#FFFFFF" d="M438.3,129.3c-51.4-1.3-44.6,52.4-44.6,52.4s-30.6-0.1-30.2,32.8c0,0,9.9-4,29.6-3.3l0.7,111.7
		c5.5,64.6,82.2,66.7,101.6,18.5c-19.5,11-50.4,15.6-56.1-27.8c-2.3-17.3-0.7-101.9-0.7-101.9s53.1,7.2,46.2-35c0,0-4.8,6-45.9,5.3
		L438.3,129.3z"/>
	<path fill="#FFFFFF" d="M562.2,129.3c0,0-43.4-1.1-46.1,34v156.9c0,0,6.6,71,72.1,51.4c0,0-19.6-12.7-24.7-53.7
		C559.7,287.6,562.2,129.3,562.2,129.3z"/>
	<path fill="#8BBD1E" d="M730.4,165c0,0,169.1-9.8,123.8,157.7C761.2,321.1,805.3,206.1,730.4,165z"/>
	<path fill="#FFFFFF" d="M894.9,156.1c71.7,58.8,12.7,256-205.4,306.4c96-42.8,201.2-165,73.7-285.9c0,0,87.3,38.1,91,146.1
		C919.3,224.6,894.9,156.1,894.9,156.1z"/>
	<path fill="#FFFFFF" d="M240.4,307.9l91-38.4c40.5-16.1,17.5-97.5-76.3-76c-47.7,10.9-78.7,67.3-62,120.8
		c25.7,82.8,152.5,82.4,156.3,7.7C346.7,324.7,269.6,379.9,240.4,307.9z M301.1,254.5c-6.2,7.2-68.1,30.8-68.1,30.8
		C219.3,170.3,336.5,213.4,301.1,254.5z"/>
	<path fill="#FFFFFF" d="M642.6,307.9l91-38.4c40.5-16.1,17.5-97.5-76.3-76c-47.7,10.9-78.7,67.3-62,120.8
		C621,397,747.8,396.6,751.5,322C748.8,324.7,671.8,379.9,642.6,307.9z M703.3,254.5c-6.2,7.2-68.1,30.8-68.1,30.8
		C621.5,170.3,738.6,213.4,703.3,254.5z"/>
</g>
</svg>
