<?xml version="1.0" encoding="utf-8"?>
<!-- Generator: Adobe Illustrator 18.1.1, SVG Export Plug-In . SVG Version: 6.00 Build 0)  -->
<svg version="1.1" id="Layer_1" xmlns="http://www.w3.org/2000/svg" xmlns:xlink="http://www.w3.org/1999/xlink" x="0px" y="0px"
	 viewBox="0 0 548.8 248.7" enable-background="new 0 0 548.8 248.7" xml:space="preserve">
<g>
	<g>
		
			<image overflow="visible" opacity="0.3" width="2231" height="1040" xlink:href="CE912B67C478AC18.png"  transform="matrix(0.24 0 0 0.24 9.3046 -5)">
		</image>
		<g>
			<path fill="#216796" d="M30.7,0c-9,0-16.1,7.2-15.3,15.5c12,124.4,124.5,221.9,261.6,221.9s249.7-97.5,261.6-221.9
				C539.5,7.2,532.3,0,523.3,0H30.7z"/>
		</g>
	</g>
	<g>
		<path fill="#FFFFFF" d="M178.6,39.3c0,0,0.3,15.3-14.4,15.5c-14.8,0.2-18-0.1-18-0.1V142c0,0-19.4,3.5-20.5-11.6
			c-1.2-15.1-0.3-75.3-0.3-75.3s-30.5-0.7-32.9,1.8s0.1-16,13.9-16.2C120.2,40.6,175.8,41.7,178.6,39.3z"/>
		<path fill="#FFFFFF" d="M261.8,40.8c-21.2-0.5-18.4,21.6-18.4,21.6s-12.6,0-12.4,13.5c0,0,4.1-1.7,12.2-1.4l0.3,46
			c2.3,26.6,33.8,27.5,41.8,7.6c-8,4.5-20.8,6.4-23.1-11.5c-0.9-7.1-0.3-42-0.3-42s21.9,3,19-14.4c0,0-2,2.5-18.9,2.2L261.8,40.8z"
			/>
		<path fill="#FFFFFF" d="M312.9,40.8c0,0-17.9-0.4-19,14v64.6c0,0,2.7,29.2,29.7,21.2c0,0-8.1-5.2-10.2-22.1
			C311.8,105.9,312.9,40.8,312.9,40.8z"/>
		<path fill="#8BBD1E" d="M382.2,55.5c0,0,69.6-4,51,64.9C394.8,119.8,413,72.4,382.2,55.5z"/>
		<path fill="#FFFFFF" d="M449.9,51.8c29.5,24.2,5.2,105.4-84.6,126.2c39.5-17.6,82.9-68,30.4-117.7c0,0,35.9,15.7,37.5,60.2
			C459.9,80,449.9,51.8,449.9,51.8z"/>
		<path fill="#FFFFFF" d="M180.4,114.3l37.5-15.8c16.7-6.6,7.2-40.1-31.4-31.3c-19.6,4.5-32.4,27.7-25.5,49.7
			c10.6,34.1,62.8,33.9,64.3,3.2C224.1,121.2,192.4,144,180.4,114.3z M205.4,92.3c-2.5,2.9-28.1,12.7-28.1,12.7
			C171.7,57.7,219.9,75.4,205.4,92.3z"/>
		<path fill="#FFFFFF" d="M346,114.3l37.5-15.8c16.7-6.6,7.2-40.1-31.4-31.3c-19.6,4.5-32.4,27.7-25.5,49.7
			c10.6,34.1,62.8,33.9,64.3,3.2C389.7,121.2,358,144,346,114.3z M371,92.3c-2.5,2.9-28.1,12.7-28.1,12.7
			C337.3,57.7,385.5,75.4,371,92.3z"/>
	</g>
</g>
</svg>
